<?xml version="1.0" standalone="no"?>
<!DOCTYPE svg PUBLIC "-//W3C//DTD SVG 20010904//EN"
 "http://www.w3.org/TR/2001/REC-SVG-20010904/DTD/svg10.dtd">
<svg version="1.0" xmlns="http://www.w3.org/2000/svg"
 width="700.000000pt" height="700.000000pt" viewBox="0 0 700.000000 700.000000"
 preserveAspectRatio="xMidYMid meet">
<metadata>
Created by potrace 1.14, written by Peter Selinger 2001-2017
</metadata>
<g transform="translate(0.000000,700.000000) scale(0.100000,-0.100000)"
fill="#000000" stroke="none">
<path d="M3017 6993 c-3 -7 -2 -357 2 -390 1 -9 39 -13 138 -15 l138 -3 0
-313 c0 -173 -3 -318 -6 -323 -3 -6 -10 -9 -15 -8 -8 3 -117 -9 -154 -16 -8
-1 -33 -6 -55 -9 -108 -17 -374 -91 -450 -126 -140 -63 -159 -69 -170 -52 -27
41 -155 270 -155 278 0 5 41 31 90 59 50 27 90 56 90 63 0 8 -8 26 -18 40 -11
15 -33 52 -49 82 -74 134 -126 220 -132 220 -4 0 -90 -48 -192 -106 -101 -58
-266 -153 -366 -211 l-183 -104 27 -52 c15 -29 43 -79 63 -112 61 -103 70
-119 87 -152 9 -18 23 -33 31 -33 7 0 52 23 99 50 67 40 88 48 99 39 8 -6 14
-15 14 -19 0 -4 34 -65 75 -136 l75 -129 -22 -15 c-62 -41 -222 -178 -298
-253 -108 -107 -157 -162 -233 -264 l-62 -82 -45 26 c-25 14 -63 36 -85 48
-104 59 -411 238 -418 245 -4 4 22 58 58 120 36 63 63 120 61 127 -3 7 -14 16
-23 20 -10 4 -46 24 -81 45 -34 21 -65 38 -68 38 -3 0 -18 8 -32 18 -15 10
-53 33 -84 50 l-56 31 -123 -212 c-67 -117 -134 -232 -149 -257 -15 -25 -39
-65 -53 -90 -13 -25 -54 -97 -91 -160 -51 -90 -63 -117 -53 -126 14 -14 328
-194 337 -194 3 0 37 54 74 119 l67 119 117 -68 c120 -69 136 -79 329 -188
l112 -64 -36 -81 c-93 -218 -139 -395 -189 -732 l-4 -30 -162 1 c-90 1 -166 2
-170 3 -5 0 -8 51 -8 111 l0 110 -205 0 -205 0 0 -430 0 -430 205 0 204 0 3
112 3 113 155 1 c147 0 200 -5 191 -20 -3 -6 7 -119 14 -156 1 -8 6 -33 9 -55
23 -143 96 -387 160 -532 l35 -78 -116 -67 c-63 -38 -138 -81 -167 -97 -28
-15 -86 -49 -129 -74 -43 -26 -81 -47 -84 -47 -3 0 -17 -9 -33 -20 l-28 -20
-16 25 c-9 14 -13 25 -10 25 4 0 0 8 -8 18 -8 9 -32 46 -52 82 -19 36 -40 71
-45 79 -8 12 -42 -4 -180 -83 -94 -54 -174 -102 -177 -108 -3 -5 -1 -14 4 -21
5 -7 19 -28 29 -47 55 -98 436 -756 442 -762 5 -6 323 171 346 193 6 6 6 16
-1 27 -6 9 -22 38 -37 64 -14 25 -36 63 -49 85 -44 69 -44 69 30 111 37 22
158 91 268 156 111 64 208 116 215 116 8 0 25 -17 39 -37 96 -143 303 -356
482 -495 l96 -76 -80 -138 c-44 -77 -83 -143 -87 -147 -7 -7 -54 17 -167 85
l-32 18 -33 -57 c-18 -32 -38 -67 -44 -78 -6 -11 -37 -64 -68 -118 -31 -54
-57 -100 -57 -102 0 -3 136 -82 260 -152 28 -16 229 -133 452 -262 15 -9 29
-13 32 -10 3 3 50 82 105 177 l100 172 -37 20 c-20 11 -55 31 -77 45 -22 14
-50 29 -62 34 -21 10 -19 15 65 160 l86 150 35 -16 c217 -94 450 -164 631
-188 8 -1 42 -5 75 -10 33 -4 67 -9 75 -11 8 -1 17 -3 20 -3 4 -1 5 -608 1
-633 0 -5 -62 -8 -136 -8 -74 0 -136 -3 -136 -7 -1 -5 -2 -97 -3 -206 l-1
-197 485 2 485 3 0 200 0 200 -138 3 c-75 1 -138 6 -138 10 -1 4 -2 148 -3
320 -1 203 2 313 9 314 5 0 15 2 20 3 6 1 37 5 70 9 167 20 482 99 580 145 44
21 160 69 161 68 3 -3 103 -177 135 -234 16 -29 29 -56 29 -60 0 -4 -41 -30
-90 -58 -49 -27 -90 -54 -90 -59 0 -15 193 -346 202 -346 9 0 396 221 440 251
15 11 29 19 31 19 6 0 250 141 260 150 6 6 -139 271 -187 341 -10 14 -22 10
-104 -37 -51 -30 -95 -54 -97 -54 -4 0 -53 82 -103 171 -11 20 -26 47 -34 60
-7 13 -20 32 -28 43 -14 17 -13 20 10 35 157 103 401 341 546 533 l51 67 229
-132 c126 -73 240 -138 254 -145 14 -7 35 -21 48 -31 l24 -17 -66 -113 c-36
-63 -66 -117 -66 -121 0 -8 183 -120 195 -120 4 0 19 -8 33 -19 15 -10 48 -30
74 -44 l47 -26 59 102 c33 56 69 118 79 137 11 19 71 123 133 230 192 333 213
370 209 374 -5 3 -225 129 -270 154 -20 11 -46 26 -57 33 -12 7 -23 11 -25 9
-2 -3 -34 -57 -71 -121 l-67 -117 -170 99 c-94 55 -172 99 -173 99 -2 0 -50
28 -109 63 l-105 63 35 79 c82 186 157 466 179 665 2 25 7 56 10 70 l5 25 167
0 167 -1 3 -112 3 -112 204 0 205 0 0 430 0 430 -205 0 -205 0 0 -109 c0 -78
-4 -110 -12 -113 -11 -4 -275 -3 -318 1 -11 1 -17 13 -18 39 -1 20 -4 48 -7
62 -2 14 -7 45 -10 70 -20 154 -100 429 -171 590 l-33 75 72 41 c40 23 165 96
279 162 l207 120 47 -81 c25 -45 56 -99 67 -119 11 -21 24 -38 29 -38 5 0 25
10 46 23 20 13 44 27 52 30 8 4 38 21 65 37 28 17 80 47 117 68 37 20 68 39
68 42 0 3 -21 41 -46 85 -25 44 -55 96 -66 115 -11 19 -99 171 -195 338 l-175
302 -31 -19 c-18 -10 -93 -53 -167 -96 -74 -42 -139 -80 -144 -85 -5 -5 19
-58 58 -127 l67 -118 -22 -15 c-12 -8 -43 -27 -68 -41 -25 -14 -131 -75 -236
-136 -104 -60 -200 -115 -211 -121 -19 -10 -25 -7 -47 27 -95 144 -314 369
-494 508 l-91 70 45 79 c25 44 57 100 72 125 14 25 33 56 41 69 l15 22 95 -55
c84 -49 96 -53 106 -38 16 23 194 331 194 336 0 3 -40 27 -120 73 -19 10 -75
43 -123 71 -49 28 -90 51 -91 51 -2 0 -56 32 -120 70 -65 39 -119 70 -121 70
-2 0 -38 20 -79 45 -42 25 -80 45 -84 45 -9 0 -192 -313 -198 -338 -3 -12 16
-29 68 -59 40 -23 81 -45 91 -48 9 -4 17 -12 17 -18 0 -6 -37 -75 -82 -153
l-81 -142 -71 30 c-242 104 -568 186 -753 191 -7 0 -14 3 -14 6 -4 17 -5 618
-1 629 3 9 40 12 141 12 l136 0 0 203 0 202 -482 3 c-265 1 -483 -1 -486 -5z
m1483 -2218 c181 -54 340 -213 395 -395 31 -103 27 -250 -9 -355 -29 -84 -76
-156 -149 -227 -43 -43 -84 -78 -90 -78 -6 0 -18 -6 -26 -14 -39 -34 -165 -68
-262 -72 -172 -6 -313 49 -434 171 -116 115 -174 256 -173 417 1 90 8 124 41
208 67 172 236 316 417 354 80 17 216 13 290 -9z m-1836 -349 c95 -23 211 -85
282 -154 75 -71 107 -114 146 -199 118 -252 62 -546 -141 -740 -35 -33 -127
-95 -175 -117 -123 -57 -307 -72 -434 -34 -208 62 -369 213 -438 413 -35 99
-43 264 -18 359 66 252 285 454 524 483 25 3 46 6 48 8 8 7 148 -6 206 -19z
m1281 -1401 c264 -67 445 -302 445 -580 0 -155 -60 -296 -174 -410 -125 -124
-263 -177 -440 -171 -163 6 -281 59 -398 177 -71 72 -134 185 -157 283 -17 68
-12 218 9 285 22 72 65 160 97 197 14 16 32 38 42 49 72 89 228 169 356 182
28 3 51 6 53 8 6 6 113 -7 167 -20z"/>
<path d="M4287 4381 c-83 -19 -140 -115 -122 -208 10 -54 81 -120 138 -128 87
-13 162 30 193 112 50 130 -67 257 -209 224z"/>
<path d="M2465 4030 c-119 -26 -193 -129 -182 -252 17 -194 256 -278 392 -138
91 93 91 233 -1 324 -59 59 -134 83 -209 66z"/>
<path d="M3763 2630 c-30 -7 -53 -20 -95 -53 -26 -20 -48 -80 -48 -128 0 -132
142 -219 260 -159 62 32 94 81 98 154 3 53 0 66 -24 103 -44 66 -119 98 -191
83z"/>
</g>
</svg>
